<?xml version="1.0"?>
<svg xmlns="http://www.w3.org/2000/svg" viewBox="354.00 134.42 888.6 204.43" width="888.6" height="204.43">
<path fill="#131312" opacity="1.000000" stroke="none" d="&#xA;M636.168091,230.691650 &#xA;&#x9;C634.114197,219.505676 635.144958,209.004135 639.396790,198.953751 &#xA;&#x9;C650.415710,172.906799 684.764404,164.419022 706.904236,182.169540 &#xA;&#x9;C708.424866,183.388672 709.910278,184.651642 711.935364,186.327240 &#xA;&#x9;C712.128418,182.769241 712.293945,179.717941 712.480347,176.282928 &#xA;&#x9;C718.587280,176.282928 724.651367,176.282928 731.098328,176.282928 &#xA;&#x9;C731.184998,177.307739 731.382263,178.559494 731.383240,179.811417 &#xA;&#x9;C731.405090,207.635483 731.424561,235.459595 731.403870,263.283661 &#xA;&#x9;C731.384338,289.475342 715.277954,306.498993 689.119324,308.088043 &#xA;&#x9;C677.946411,308.766724 667.179382,307.359772 657.177490,301.999542 &#xA;&#x9;C646.960144,296.523834 640.744446,287.486176 639.146973,275.499573 &#xA;&#x9;C645.564941,275.499573 651.941467,275.499573 658.492371,275.499573 &#xA;&#x9;C664.162537,288.755463 676.855469,294.364288 692.838318,290.362183 &#xA;&#x9;C707.631470,286.658051 713.664856,275.861206 711.776062,255.831589 &#xA;&#x9;C703.945374,262.494324 695.139343,266.316223 685.102051,266.903503 &#xA;&#x9;C664.460449,268.111237 642.379761,258.084900 636.168091,230.691650 &#xA;M657.982605,234.295898 &#xA;&#x9;C661.157593,240.944717 666.323242,245.488815 673.203491,247.842163 &#xA;&#x9;C693.988586,254.951706 715.966919,241.229828 712.088684,214.548325 &#xA;&#x9;C710.515564,203.725739 704.688782,196.041733 694.475159,192.337570 &#xA;&#x9;C683.834961,188.478683 673.432434,189.273651 664.492126,196.915665 &#xA;&#x9;C654.711487,205.276016 652.253967,219.339325 657.982605,234.295898 &#xA;z"></path>
<path fill="#131313" opacity="1.000000" stroke="none" d="&#xA;M870.790344,255.226913 &#xA;&#x9;C853.440735,237.929520 851.599609,207.573608 866.498230,188.578827 &#xA;&#x9;C879.947083,171.432449 908.140137,167.695175 926.039490,180.722534 &#xA;&#x9;C928.265991,182.342987 930.341919,184.170288 933.104858,186.399826 &#xA;&#x9;C933.104858,182.670746 933.104858,179.601761 933.104858,176.217239 &#xA;&#x9;C939.656494,176.217239 945.737793,176.217239 952.305603,176.217239 &#xA;&#x9;C952.305603,181.131699 952.306030,186.093140 952.305542,191.054581 &#xA;&#x9;C952.303284,215.215744 952.343567,239.377029 952.286499,263.538055 &#xA;&#x9;C952.225342,289.416687 936.167969,306.410461 910.273010,308.058044 &#xA;&#x9;C897.878357,308.846619 885.986816,307.199463 875.383057,300.142517 &#xA;&#x9;C866.737488,294.388824 861.963806,286.176453 860.145142,275.437775 &#xA;&#x9;C866.875427,275.437775 873.271057,275.437775 879.778931,275.437775 &#xA;&#x9;C884.458374,288.154388 897.010376,294.041138 912.752930,290.675873 &#xA;&#x9;C928.020569,287.412109 933.960205,277.300110 932.898071,256.074890 &#xA;&#x9;C912.077698,271.048676 891.455933,270.935760 870.790344,255.226913 &#xA;M909.577759,190.769363 &#xA;&#x9;C904.818726,191.045197 899.836365,190.508698 895.341248,191.744446 &#xA;&#x9;C879.935791,195.979446 872.405029,212.783249 877.614685,230.170166 &#xA;&#x9;C882.119690,245.205368 897.448059,253.026123 913.466003,248.462006 &#xA;&#x9;C926.947632,244.620575 933.697815,234.105118 933.194580,217.728500 &#xA;&#x9;C932.764404,203.728470 924.562134,194.063370 909.577759,190.769363 &#xA;z"></path>
<path fill="#131313" opacity="1.000000" stroke="none" d="&#xA;M512.895264,229.018433 &#xA;&#x9;C508.855225,241.572983 504.906372,253.740707 500.891266,266.112610 &#xA;&#x9;C494.364807,266.112610 488.029541,266.299347 481.721558,265.967499 &#xA;&#x9;C480.327820,265.894196 478.261566,264.243866 477.804382,262.883148 &#xA;&#x9;C470.925903,242.409866 464.264954,221.863510 457.202667,200.263077 &#xA;&#x9;C456.279083,202.822388 455.603577,204.535782 455.038361,206.284805 &#xA;&#x9;C449.057343,224.792755 443.025879,243.284988 437.191101,261.839050 &#xA;&#x9;C436.197021,265.000214 434.889313,266.376801 431.352051,266.161377 &#xA;&#x9;C425.547119,265.807922 419.704987,266.065674 413.421326,266.065674 &#xA;&#x9;C403.654114,236.194382 393.873108,206.280899 384.001221,176.089432 &#xA;&#x9;C391.009735,176.089432 397.623779,176.089432 404.387115,176.089432 &#xA;&#x9;C411.148010,198.230164 417.871918,220.249786 425.022522,243.666733 &#xA;&#x9;C427.932831,234.629608 430.433960,226.894958 432.914459,219.153717 &#xA;&#x9;C437.124512,206.014938 441.400238,192.896225 445.461121,179.711395 &#xA;&#x9;C446.327881,176.897217 447.452820,175.656204 450.609406,175.824677 &#xA;&#x9;C456.237305,176.125015 461.892792,175.909134 467.427399,175.909134 &#xA;&#x9;C474.799500,198.357666 482.051819,220.441422 489.519958,243.182312 &#xA;&#x9;C496.423676,220.486328 503.130707,198.437027 509.905670,176.164368 &#xA;&#x9;C516.450684,176.164368 522.838501,176.164368 529.931946,176.164368 &#xA;&#x9;C524.210693,193.878693 518.598572,211.255142 512.895264,229.018433 &#xA;z"></path>
<path fill="#121212" opacity="1.000000" stroke="none" d="&#xA;M1092.849854,287.998260 &#xA;&#x9;C1092.850586,293.959503 1092.850586,299.421112 1092.850586,305.109467 &#xA;&#x9;C1086.348999,305.109467 1080.381958,305.109467 1073.989258,305.109467 &#xA;&#x9;C1073.989258,262.209229 1073.989258,219.199921 1073.989258,176.042130 &#xA;&#x9;C1080.061646,176.042130 1086.034912,176.042130 1092.637939,176.042130 &#xA;&#x9;C1092.637939,179.328171 1092.637939,182.529724 1092.637939,187.053696 &#xA;&#x9;C1100.891479,178.301788 1109.931641,173.936050 1120.578247,173.110229 &#xA;&#x9;C1144.731323,171.236786 1164.725952,187.270264 1167.858887,211.365280 &#xA;&#x9;C1169.312744,222.546173 1168.680054,233.626892 1163.671265,244.072098 &#xA;&#x9;C1151.741577,268.949738 1119.330444,276.504272 1097.561523,259.461578 &#xA;&#x9;C1096.176025,258.376953 1094.832642,257.238770 1092.849121,255.618668 &#xA;&#x9;C1092.849121,266.693970 1092.849121,277.096313 1092.849854,287.998260 &#xA;M1095.189575,235.122253 &#xA;&#x9;C1100.030151,245.591202 1108.660278,250.534561 1119.753052,250.927078 &#xA;&#x9;C1138.468262,251.589325 1150.654663,237.216736 1148.961060,217.036499 &#xA;&#x9;C1147.695679,201.956482 1137.511597,191.474060 1122.985718,190.299911 &#xA;&#x9;C1109.123779,189.179443 1096.914673,197.430328 1093.540894,210.506943 &#xA;&#x9;C1091.465454,218.551163 1091.538086,226.601547 1095.189575,235.122253 &#xA;z"></path>
<path fill="#131313" opacity="1.000000" stroke="none" d="&#xA;M779.270447,265.807373 &#xA;&#x9;C761.222900,259.087830 751.496033,245.947052 749.383484,227.649841 &#xA;&#x9;C747.260315,209.260361 751.595703,192.502899 767.596069,181.302612 &#xA;&#x9;C783.053406,170.482452 800.098389,170.012863 816.918213,177.858139 &#xA;&#x9;C833.747009,185.707550 839.543152,200.781189 840.798340,218.186584 &#xA;&#x9;C840.977051,220.664322 840.822998,223.166031 840.822998,226.208252 &#xA;&#x9;C816.884277,226.208252 793.187744,226.208252 769.566467,226.208252 &#xA;&#x9;C768.300171,235.987091 776.202759,246.752548 786.594604,250.055573 &#xA;&#x9;C801.286804,254.725479 812.709900,250.130035 820.157837,236.311539 &#xA;&#x9;C826.230347,237.027695 832.431335,237.758987 839.023926,238.536484 &#xA;&#x9;C836.060852,250.664734 828.874329,258.910522 818.126404,263.930847 &#xA;&#x9;C805.662537,269.752686 792.712158,269.820801 779.270447,265.807373 &#xA;M773.844055,199.453094 &#xA;&#x9;C772.119873,203.114700 770.395630,206.776306 768.471436,210.862640 &#xA;&#x9;C786.399597,210.862640 803.296204,210.862640 820.216064,210.862640 &#xA;&#x9;C819.327148,200.933014 813.133484,193.427673 803.511292,190.362885 &#xA;&#x9;C792.801147,186.951599 781.676758,190.175095 773.844055,199.453094 &#xA;z"></path>
<path fill="#141414" opacity="1.000000" stroke="none" d="&#xA;M1029.286377,194.757690 &#xA;&#x9;C1021.210266,188.569519 1012.492554,187.875839 1003.427063,190.437225 &#xA;&#x9;C997.475464,192.118774 993.923035,196.335052 992.841492,202.970306 &#xA;&#x9;C986.559448,202.431992 980.353882,201.900223 973.727173,201.332367 &#xA;&#x9;C974.363037,190.267700 979.671692,182.361084 989.175110,177.950333 &#xA;&#x9;C1005.381897,170.428375 1021.900024,171.025635 1037.838989,178.882355 &#xA;&#x9;C1047.999268,183.890656 1052.931396,193.150620 1053.211548,204.062149 &#xA;&#x9;C1053.736816,224.515167 1053.362915,244.991257 1053.362915,265.792603 &#xA;&#x9;C1047.127075,265.792603 1041.048950,265.792603 1034.455811,265.792603 &#xA;&#x9;C1034.455811,262.680450 1034.455811,259.462524 1034.455811,254.768784 &#xA;&#x9;C1024.439087,266.845367 1012.348267,269.579987 998.750854,267.982574 &#xA;&#x9;C979.379700,265.706848 967.631409,251.327713 970.994812,233.870911 &#xA;&#x9;C973.261536,222.106064 982.165833,214.358963 997.093628,212.189758 &#xA;&#x9;C1004.298157,211.142853 1011.680786,211.257721 1018.988220,211.004745 &#xA;&#x9;C1023.626465,210.844177 1028.274780,210.974731 1033.284424,210.974731 &#xA;&#x9;C1033.598145,205.134842 1033.909790,199.578827 1029.286377,194.757690 &#xA;M993.216064,247.174973 &#xA;&#x9;C1000.763916,253.810425 1012.529785,254.918350 1022.109802,249.895691 &#xA;&#x9;C1030.678833,245.403091 1034.681641,236.630661 1033.198242,224.971893 &#xA;&#x9;C1026.658691,224.971893 1020.027588,224.660507 1013.442200,225.074371 &#xA;&#x9;C1008.528625,225.383163 1003.422180,225.938141 998.847290,227.606033 &#xA;&#x9;C990.161865,230.772598 987.966187,238.522217 993.216064,247.174973 &#xA;z"></path>
<path fill="#131313" opacity="1.000000" stroke="none" d="&#xA;M588.665344,263.778412 &#xA;&#x9;C573.620605,270.855560 559.134155,270.230865 545.640137,261.280731 &#xA;&#x9;C529.787659,250.766357 531.493042,225.534073 548.224182,216.563644 &#xA;&#x9;C556.080017,212.351715 564.543823,211.043747 573.277954,210.950317 &#xA;&#x9;C581.399902,210.863434 589.523499,210.931747 597.619141,210.931747 &#xA;&#x9;C598.914917,198.126663 593.818604,191.305054 581.709229,189.358627 &#xA;&#x9;C568.697876,187.267242 560.014160,192.011917 557.470337,203.124832 &#xA;&#x9;C554.304138,202.869080 551.036072,202.627121 547.772522,202.335175 &#xA;&#x9;C544.632568,202.054291 541.497192,201.721649 537.983276,201.374557 &#xA;&#x9;C538.588257,191.207367 543.092590,183.351349 551.705994,178.937561 &#xA;&#x9;C569.050842,170.049469 586.778503,170.632935 603.826172,179.895538 &#xA;&#x9;C613.429199,185.113205 617.556274,194.402878 617.753296,204.930695 &#xA;&#x9;C618.130005,225.064148 617.862671,245.209671 617.862671,265.740387 &#xA;&#x9;C611.598572,265.740387 605.538757,265.740387 598.962769,265.740387 &#xA;&#x9;C598.962769,262.589142 598.962769,259.217529 598.962769,255.384109 &#xA;&#x9;C595.274719,258.419006 592.129822,261.006927 588.665344,263.778412 &#xA;M590.450439,224.962509 &#xA;&#x9;C581.536438,225.679657 572.345276,225.279892 563.780701,227.405106 &#xA;&#x9;C553.754150,229.893066 551.151306,241.961014 558.690613,248.147308 &#xA;&#x9;C561.488098,250.442703 565.396301,251.921005 569.015991,252.587097 &#xA;&#x9;C586.896790,255.877487 601.292297,241.774445 597.361206,224.959229 &#xA;&#x9;C595.409851,224.959229 593.423218,224.959229 590.450439,224.962509 &#xA;z"></path>
<path fill="#B94420" opacity="1.000000" stroke="none" d="&#xA;M1201.686279,267.114380 &#xA;&#x9;C1188.830811,270.459442 1178.277588,261.985260 1180.479614,250.517456 &#xA;&#x9;C1181.912842,243.053345 1187.255615,238.152496 1194.360352,237.784805 &#xA;&#x9;C1202.513428,237.362869 1208.619507,241.535660 1210.564575,248.858505 &#xA;&#x9;C1212.599976,256.521698 1209.669312,262.776154 1201.686279,267.114380 &#xA;z"></path>
</svg>