<?xml version="1.0"?>
<svg xmlns="http://www.w3.org/2000/svg" viewBox="659.11 745.83 229.71 238.91" width="229.71" height="238.91">
<path fill="#141414" opacity="1.000000" stroke="none" d="&#xA;M822.919067,942.057007 &#xA;&#x9;C822.919128,939.589722 822.919128,937.610352 822.919128,936.988281 &#xA;&#x9;C828.415466,934.677490 834.688232,933.869385 837.605469,930.310547 &#xA;&#x9;C840.654358,926.591187 840.475037,920.225525 841.884460,914.266052 &#xA;&#x9;C790.125854,914.266052 739.760498,914.266052 689.137085,914.266052 &#xA;&#x9;C689.137085,907.866333 689.137085,901.936584 689.137085,895.651550 &#xA;&#x9;C745.396606,895.651550 801.616760,895.651550 857.783203,895.651550 &#xA;&#x9;C857.783203,907.057800 858.821777,918.458069 857.537415,929.590393 &#xA;&#x9;C855.657227,945.886414 842.313660,954.735474 822.919067,953.748047 &#xA;&#x9;C822.919067,950.048706 822.919067,946.296814 822.919067,942.057007 &#xA;z"></path>
<path fill="#141414" opacity="1.000000" stroke="none" d="&#xA;M712.001221,855.651611 &#xA;&#x9;C760.950317,855.650330 809.399475,855.650330 858.068237,855.650330 &#xA;&#x9;C858.068237,861.964722 858.068237,867.895447 858.068237,874.205933 &#xA;&#x9;C801.734680,874.205933 745.523560,874.205933 689.111572,874.205933 &#xA;&#x9;C689.111572,868.142273 689.111572,862.193359 689.111572,855.652954 &#xA;&#x9;C696.617615,855.652954 704.059387,855.652954 712.001221,855.651611 &#xA;z"></path>
<path fill="#B94420" opacity="1.000000" stroke="none" d="&#xA;M700.038025,815.527588 &#xA;&#x9;C752.948669,815.526978 805.365051,815.526978 858.063599,815.526978 &#xA;&#x9;C858.063599,821.972412 858.063599,828.051941 858.063599,834.490356 &#xA;&#x9;C801.809448,834.490356 745.646179,834.490356 689.174805,834.490356 &#xA;&#x9;C689.174805,828.383789 689.174805,822.307129 689.174805,815.528259 &#xA;&#x9;C692.649536,815.528259 696.096619,815.528259 700.038025,815.527588 &#xA;z"></path>
<path fill="#141414" opacity="1.000000" stroke="none" d="&#xA;M838.999634,775.830200 &#xA;&#x9;C845.644775,775.830139 851.790039,775.830139 858.075928,775.830139 &#xA;&#x9;C858.075928,782.132935 858.075928,788.089478 858.075928,794.405273 &#xA;&#x9;C801.689209,794.405273 745.497437,794.405273 689.107422,794.405273 &#xA;&#x9;C689.107422,788.295593 689.107422,782.365417 689.107422,775.830322 &#xA;&#x9;C738.993408,775.830322 788.746582,775.830322 838.999634,775.830200 &#xA;z"></path>
<path fill="#131312" opacity="1.000000" stroke="none" d="&#xA;M787.999878,953.926819 &#xA;&#x9;C754.888184,953.927002 722.276489,953.927002 689.280762,953.927002 &#xA;&#x9;C689.280762,947.697083 689.280762,941.661499 689.280762,935.322998 &#xA;&#x9;C729.138672,935.322998 769.015503,935.322998 809.160278,935.322998 &#xA;&#x9;C809.160278,941.406433 809.160278,947.506287 809.160278,953.926636 &#xA;&#x9;C802.112061,953.926636 795.305969,953.926636 787.999878,953.926819 &#xA;z"></path>
</svg>