<?xml version="1.0"?>
<svg xmlns="http://www.w3.org/2000/svg" viewBox="273.21 459.21 1051.83 206.72" width="1051.83" height="206.72">
<path fill="#141414" opacity="1.000000" stroke="none" d="&#xA;M1044.208862,512.399414 &#xA;&#x9;C1048.473877,512.399780 1052.266724,512.399780 1056.416992,512.399780 &#xA;&#x9;C1056.538452,514.355530 1056.725464,515.971985 1056.726196,517.588623 &#xA;&#x9;C1056.737549,543.081177 1056.841309,568.574402 1056.685059,594.066040 &#xA;&#x9;C1056.528198,619.630676 1037.080566,635.933044 1009.730957,633.670105 &#xA;&#x9;C999.764893,632.845642 990.370056,630.418701 982.535156,623.742126 &#xA;&#x9;C976.456116,618.561829 973.233032,611.891113 971.706360,603.573853 &#xA;&#x9;C978.023376,603.573853 983.788330,603.573853 989.686462,603.573853 &#xA;&#x9;C994.770325,617.968933 1008.536621,620.198181 1022.236145,617.082886 &#xA;&#x9;C1034.648193,614.260498 1039.738159,604.143372 1038.878296,584.809875 &#xA;&#x9;C1027.691040,595.402832 1014.578064,597.813416 1000.380066,594.738037 &#xA;&#x9;C990.479126,592.593445 982.174744,587.487976 976.218262,579.074829 &#xA;&#x9;C963.847656,561.602051 966.581604,533.741760 981.962524,519.977356 &#xA;&#x9;C997.684265,505.907990 1021.184082,506.683807 1038.787720,522.350220 &#xA;&#x9;C1038.787720,518.885193 1038.787720,515.890625 1038.787720,512.399109 &#xA;&#x9;C1040.822266,512.399109 1042.279541,512.399109 1044.208862,512.399414 &#xA;M1018.708984,526.319702 &#xA;&#x9;C1017.055420,526.161804 1015.404541,525.905823 1013.747925,525.861755 &#xA;&#x9;C1001.964355,525.548523 993.033691,530.888123 988.925415,540.649536 &#xA;&#x9;C984.320251,551.591553 986.477661,564.994568 994.095215,572.767639 &#xA;&#x9;C1001.116150,579.932007 1013.882874,582.139282 1023.806458,577.904663 &#xA;&#x9;C1034.305054,573.424622 1039.500854,564.139282 1039.027222,550.703552 &#xA;&#x9;C1038.613403,538.962830 1031.821045,530.544556 1018.708984,526.319702 &#xA;z"></path>
<path fill="#141414" opacity="1.000000" stroke="none" d="&#xA;M841.349121,512.391357 &#xA;&#x9;C845.939880,512.385864 850.073364,512.385864 854.538025,512.385864 &#xA;&#x9;C854.629578,514.082642 854.772400,515.524231 854.775452,516.966064 &#xA;&#x9;C854.827209,541.464050 854.833069,565.962036 854.907349,590.459961 &#xA;&#x9;C854.991821,618.315247 837.707581,635.200806 809.845703,633.573853 &#xA;&#x9;C802.692017,633.156189 795.336548,631.287842 788.667236,628.608582 &#xA;&#x9;C778.049500,624.343201 772.114685,615.716370 770.139038,603.711853 &#xA;&#x9;C776.176575,603.711853 782.038208,603.711853 788.042236,603.711853 &#xA;&#x9;C793.215637,618.907288 808.622192,620.277588 821.525757,616.708984 &#xA;&#x9;C833.527100,613.390015 839.259521,601.044800 836.572266,585.961304 &#xA;&#x9;C814.900391,600.274414 790.430542,598.468079 776.452698,581.523193 &#xA;&#x9;C762.580750,564.706848 763.647034,536.797852 778.748047,521.447388 &#xA;&#x9;C793.781921,506.165070 817.288818,506.216827 836.910828,521.935913 &#xA;&#x9;C837.027771,519.749390 837.340881,517.843872 837.180603,515.979065 &#xA;&#x9;C836.931152,513.075928 838.133240,512.015381 841.349121,512.391357 &#xA;M797.825928,576.914612 &#xA;&#x9;C798.580627,577.262451 799.322144,577.642700 800.091980,577.953064 &#xA;&#x9;C811.247009,582.451904 824.630981,579.478455 831.621521,570.957825 &#xA;&#x9;C838.735229,562.287048 839.364685,546.954224 833.009155,537.153931 &#xA;&#x9;C826.875549,527.695984 814.877625,523.620789 802.996338,526.911011 &#xA;&#x9;C792.725647,529.755310 786.852112,536.729492 785.270020,546.959778 &#xA;&#x9;C783.410767,558.982300 786.241333,569.489746 797.825928,576.914612 &#xA;z"></path>
<path fill="#141413" opacity="1.000000" stroke="none" d="&#xA;M632.767212,572.663391 &#xA;&#x9;C638.723206,553.998474 644.534363,535.625061 649.901367,517.122742 &#xA;&#x9;C651.084900,513.042480 652.898376,511.916321 656.828796,512.247864 &#xA;&#x9;C660.917786,512.592773 665.058350,512.324768 669.780273,512.324768 &#xA;&#x9;C660.747192,540.232422 651.918091,567.509827 643.118652,594.695801 &#xA;&#x9;C642.321228,594.850342 641.849182,595.025574 641.379272,595.020142 &#xA;&#x9;C635.237976,594.949219 627.520508,597.067505 623.402161,594.135803 &#xA;&#x9;C619.336975,591.242004 618.852234,583.254395 616.902771,577.465637 &#xA;&#x9;C612.609802,564.717957 608.388916,551.945923 604.120544,539.189880 &#xA;&#x9;C603.764893,538.127197 603.272400,537.110413 602.583984,535.444336 &#xA;&#x9;C595.955750,555.620483 589.545410,575.133362 583.078796,594.817505 &#xA;&#x9;C576.150879,594.817505 569.395264,594.817505 562.404663,594.817505 &#xA;&#x9;C553.497375,567.610535 544.584412,540.386230 535.411133,512.366699 &#xA;&#x9;C541.603821,512.366699 547.036865,512.194153 552.438843,512.526428 &#xA;&#x9;C553.406372,512.585938 554.664124,514.601196 555.080933,515.934448 &#xA;&#x9;C560.831909,534.328979 566.457642,552.762573 572.121399,571.184326 &#xA;&#x9;C572.357727,571.953003 572.665405,572.699707 573.215576,574.216736 &#xA;&#x9;C580.060791,553.154968 586.668213,532.825012 593.179016,512.792175 &#xA;&#x9;C593.841675,512.580383 594.000122,512.486267 594.159058,512.485291 &#xA;&#x9;C599.983521,512.450500 607.209290,510.321198 611.230530,513.000427 &#xA;&#x9;C615.096008,515.575806 615.782532,523.083374 617.622986,528.506226 &#xA;&#x9;C622.638184,543.283691 627.524902,558.104736 632.767212,572.663391 &#xA;z"></path>
<path fill="#141413" opacity="1.000000" stroke="none" d="&#xA;M1243.334473,586.340271 &#xA;&#x9;C1227.375610,601.140869 1204.425293,600.723083 1186.250366,585.195984 &#xA;&#x9;C1186.250366,600.424561 1186.250366,615.297974 1186.250366,630.541016 &#xA;&#x9;C1180.262329,630.541016 1174.682861,630.541016 1168.750244,630.541016 &#xA;&#x9;C1168.750244,591.430847 1168.750244,552.200562 1168.750244,512.654175 &#xA;&#x9;C1174.423218,512.654175 1179.978516,512.654175 1185.914795,512.654175 &#xA;&#x9;C1185.914795,515.772766 1185.914795,518.687073 1185.914795,522.601990 &#xA;&#x9;C1192.344727,516.357788 1198.928711,512.348816 1207.000977,510.757111 &#xA;&#x9;C1229.744873,506.272461 1250.312134,519.606812 1254.638550,542.407898 &#xA;&#x9;C1257.697754,558.530945 1255.341675,573.573242 1243.334473,586.340271 &#xA;M1187.714966,541.521545 &#xA;&#x9;C1187.309448,542.777222 1186.822388,544.013123 1186.510864,545.291748 &#xA;&#x9;C1183.444946,557.878235 1187.727051,570.986145 1197.064331,576.827637 &#xA;&#x9;C1205.931763,582.375122 1215.312988,582.757751 1224.575195,578.062317 &#xA;&#x9;C1234.908813,572.823730 1237.777588,563.288818 1237.873779,552.598572 &#xA;&#x9;C1237.990845,539.569214 1230.209106,529.411987 1218.265015,526.637146 &#xA;&#x9;C1205.477295,523.666382 1193.872314,529.093384 1187.714966,541.521545 &#xA;z"></path>
<path fill="#131313" opacity="1.000000" stroke="none" d="&#xA;M941.015869,519.966309 &#xA;&#x9;C952.013550,530.704712 954.649841,543.877747 953.902222,558.752563 &#xA;&#x9;C932.271423,558.752563 910.714966,558.752563 889.175903,558.752563 &#xA;&#x9;C888.918274,569.518250 895.782532,578.336426 906.080688,581.044495 &#xA;&#x9;C918.638489,584.346741 928.659485,579.879456 935.278320,567.747131 &#xA;&#x9;C940.690002,568.418091 946.257507,569.108398 952.362915,569.865417 &#xA;&#x9;C950.927368,578.300537 946.425049,584.399536 940.162964,589.268250 &#xA;&#x9;C920.995728,604.170715 889.083069,598.203125 876.547180,577.475647 &#xA;&#x9;C864.354919,557.316467 870.349243,528.475037 889.293701,516.141418 &#xA;&#x9;C900.873108,508.602722 924.613586,505.875031 941.015869,519.966309 &#xA;M915.204163,524.952942 &#xA;&#x9;C900.345642,524.764160 891.010925,531.906860 889.314026,544.825806 &#xA;&#x9;C904.724854,544.825806 920.125183,544.825806 935.563049,544.825806 &#xA;&#x9;C933.844055,533.384705 927.760071,527.282837 915.204163,524.952942 &#xA;z"></path>
<path fill="#131313" opacity="1.000000" stroke="none" d="&#xA;M721.390991,510.484344 &#xA;&#x9;C729.196411,511.659210 736.117798,513.929810 741.803162,518.922302 &#xA;&#x9;C747.157104,523.623657 750.560547,529.772522 750.698975,536.779419 &#xA;&#x9;C751.079651,556.045776 750.830383,575.324646 750.830383,594.830811 &#xA;&#x9;C745.180176,594.830811 739.744690,594.830811 733.955688,594.830811 &#xA;&#x9;C733.826782,591.894470 733.698181,588.964478 733.570557,586.056274 &#xA;&#x9;C733.120056,585.983154 732.615662,585.792297 732.536316,585.903870 &#xA;&#x9;C723.476868,598.641418 702.016357,599.863953 688.598877,593.393127 &#xA;&#x9;C678.628845,588.584961 674.245422,580.510559 674.484680,569.667236 &#xA;&#x9;C674.718384,559.073975 680.353455,552.347961 689.833496,548.471680 &#xA;&#x9;C699.491455,544.522644 709.651123,544.614075 719.831299,544.863586 &#xA;&#x9;C723.959778,544.964783 728.092773,544.880249 732.177185,544.880249 &#xA;&#x9;C733.746826,533.906677 729.819458,527.921509 719.685059,525.481873 &#xA;&#x9;C707.583740,522.568726 698.597351,526.713867 694.967407,537.002380 &#xA;&#x9;C692.078125,537.002380 689.125427,537.134094 686.190002,536.965393 &#xA;&#x9;C683.245972,536.796082 680.319153,536.327087 677.406860,535.991943 &#xA;&#x9;C678.756775,522.507629 687.683411,513.115295 701.584595,511.143494 &#xA;&#x9;C707.950317,510.240509 714.494690,510.597351 721.390991,510.484344 &#xA;M709.763855,557.853394 &#xA;&#x9;C706.542969,558.563049 703.182800,558.906555 700.133362,560.066772 &#xA;&#x9;C695.376465,561.876648 692.805115,565.557617 692.805420,570.819885 &#xA;&#x9;C692.805786,575.929260 695.494385,579.363342 699.932739,581.234924 &#xA;&#x9;C708.726746,584.943054 717.262695,583.745972 724.969177,578.411682 &#xA;&#x9;C731.994690,573.548767 733.167969,566.123230 732.740784,557.783142 &#xA;&#x9;C725.205627,557.783142 717.955322,557.783142 709.763855,557.853394 &#xA;z"></path>
<path fill="#121212" opacity="1.000000" stroke="none" d="&#xA;M1080.068604,554.076782 &#xA;&#x9;C1088.572754,546.416321 1098.758911,545.069763 1109.200562,544.779114 &#xA;&#x9;C1116.503418,544.575867 1123.816284,544.739868 1131.117310,544.739868 &#xA;&#x9;C1133.274170,535.211670 1129.651001,528.824341 1120.492554,525.964417 &#xA;&#x9;C1108.102173,522.095215 1098.058594,526.245544 1093.714600,537.397705 &#xA;&#x9;C1088.111206,536.960938 1082.371704,536.513489 1076.274048,536.038147 &#xA;&#x9;C1077.733887,524.467773 1083.786743,516.876221 1094.083618,513.100403 &#xA;&#x9;C1107.451538,508.198364 1120.960571,508.665527 1133.972534,514.508423 &#xA;&#x9;C1143.744995,518.896606 1149.511353,526.930847 1149.809570,537.547363 &#xA;&#x9;C1150.342041,556.502319 1149.959595,575.482971 1149.959595,594.763916 &#xA;&#x9;C1144.219238,594.763916 1138.664795,594.763916 1132.823242,594.763916 &#xA;&#x9;C1132.823242,591.612976 1132.823242,588.536072 1132.823242,584.133057 &#xA;&#x9;C1124.817993,594.979370 1114.397827,597.628357 1102.755371,597.178406 &#xA;&#x9;C1088.642456,596.632935 1077.500122,589.306152 1074.650146,578.069763 &#xA;&#x9;C1072.467163,569.463074 1073.248901,561.184448 1080.068604,554.076782 &#xA;M1101.690186,582.197876 &#xA;&#x9;C1119.786743,586.633606 1133.921387,575.142700 1131.314819,557.269836 &#xA;&#x9;C1121.977295,557.731384 1112.487549,557.649109 1103.159912,558.838623 &#xA;&#x9;C1095.900757,559.764343 1092.497314,563.919922 1091.968628,569.698059 &#xA;&#x9;C1091.454834,575.313416 1093.924194,578.699585 1101.690186,582.197876 &#xA;z"></path>
<path fill="#121212" opacity="1.000000" stroke="none" d="&#xA;M375.000000,599.061768 &#xA;&#x9;C350.878479,599.062012 327.256989,599.062012 303.320831,599.062012 &#xA;&#x9;C303.320831,594.116943 303.320831,589.386169 303.320831,584.322632 &#xA;&#x9;C358.340088,584.322632 413.339966,584.322632 468.536621,584.322632 &#xA;&#x9;C468.536621,592.822876 469.423492,601.367065 468.340820,609.654053 &#xA;&#x9;C466.437958,624.218872 453.513519,632.303345 436.423523,630.523254 &#xA;&#x9;C436.423523,625.823303 436.423523,621.088928 436.423523,616.377136 &#xA;&#x9;C451.941071,613.947998 454.353455,611.444092 452.721741,599.061462 &#xA;&#x9;C427.024689,599.061462 401.262329,599.061462 375.000000,599.061768 &#xA;z"></path>
<path fill="#131313" opacity="1.000000" stroke="none" d="&#xA;M468.883911,560.929565 &#xA;&#x9;C468.885010,563.215027 468.885010,565.028320 468.885010,567.072388 &#xA;&#x9;C413.584259,567.072388 358.639496,567.072388 303.355804,567.072388 &#xA;&#x9;C303.355804,562.378479 303.355804,557.634705 303.355804,552.494141 &#xA;&#x9;C358.298431,552.494141 413.324188,552.494141 468.882782,552.494141 &#xA;&#x9;C468.882782,555.223999 468.882782,557.840698 468.883911,560.929565 &#xA;z"></path>
<path fill="#121212" opacity="1.000000" stroke="none" d="&#xA;M341.000000,503.961884 &#xA;&#x9;C328.202423,503.961823 315.904816,503.961823 303.319550,503.961823 &#xA;&#x9;C303.319550,498.957458 303.319550,494.231964 303.319550,489.209412 &#xA;&#x9;C358.408539,489.209412 413.423981,489.209412 468.659607,489.209412 &#xA;&#x9;C468.659607,494.005096 468.659607,498.610107 468.659607,503.961945 &#xA;&#x9;C426.266144,503.961945 383.883057,503.961945 341.000000,503.961884 &#xA;z"></path>
<path fill="#BB4722" opacity="1.000000" stroke="none" d="&#xA;M304.992401,521.026855 &#xA;&#x9;C310.022034,520.943848 315.051666,520.860779 320.797668,521.161011 &#xA;&#x9;C323.678314,521.357056 325.842621,521.169922 328.006897,520.982788 &#xA;&#x9;C333.315247,520.897949 338.623535,520.741394 343.931915,520.739868 &#xA;&#x9;C381.977142,520.728760 420.022339,520.749329 458.797791,521.152039 &#xA;&#x9;C462.346283,521.377136 465.164581,521.210083 467.982849,521.042969 &#xA;&#x9;C468.428528,525.799377 468.874176,530.555725 469.350983,535.644775 &#xA;&#x9;C413.531219,535.644775 358.578491,535.644775 303.208679,535.644775 &#xA;&#x9;C303.208679,530.857788 303.208679,526.113525 303.704407,521.356384 &#xA;&#x9;C304.464233,521.237976 304.728302,521.132385 304.992401,521.026855 &#xA;z"></path>
<path fill="#131312" opacity="1.000000" stroke="none" d="&#xA;M341.000122,615.808594 &#xA;&#x9;C368.645325,615.809753 395.790497,615.809753 423.203186,615.809753 &#xA;&#x9;C423.203186,620.867615 423.203186,625.621338 423.203186,630.642944 &#xA;&#x9;C383.273926,630.642944 343.519257,630.642944 303.386597,630.642944 &#xA;&#x9;C303.386597,626.004211 303.386597,621.279724 303.386597,615.807495 &#xA;&#x9;C315.669525,615.807495 328.084839,615.807495 341.000122,615.808594 &#xA;z"></path>
<path fill="#B94420" opacity="1.000000" stroke="none" d="&#xA;M1267.122559,586.880676 &#xA;&#x9;C1265.703735,580.128296 1267.684082,574.932983 1273.029175,571.320312 &#xA;&#x9;C1277.671387,568.182617 1282.777466,568.059692 1287.658325,570.792908 &#xA;&#x9;C1292.525269,573.518311 1295.041992,577.845459 1294.874512,583.508850 &#xA;&#x9;C1294.679199,590.106934 1289.781006,595.867371 1283.613403,596.901428 &#xA;&#x9;C1276.044800,598.170410 1270.207275,594.740479 1267.122559,586.880676 &#xA;z"></path>
<path fill="#B33410" opacity="1.000000" stroke="none" d="&#xA;M467.544678,520.933838 &#xA;&#x9;C465.164581,521.210083 462.346283,521.377136 459.256226,521.253601 &#xA;&#x9;C461.691772,520.916870 464.399139,520.870789 467.544678,520.933838 &#xA;z"></path>
<path fill="#B33410" opacity="1.000000" stroke="none" d="&#xA;M327.573822,520.904297 &#xA;&#x9;C325.842621,521.169922 323.678314,521.357056 321.254333,521.265930 &#xA;&#x9;C323.043304,520.933716 325.092041,520.879761 327.573822,520.904297 &#xA;z"></path>
<path fill="#B33410" opacity="1.000000" stroke="none" d="&#xA;M304.746765,520.962280 &#xA;&#x9;C304.728302,521.132385 304.464233,521.237976 304.106445,521.190308 &#xA;&#x9;C304.175568,520.990601 304.338348,520.944092 304.746765,520.962280 &#xA;z"></path>
</svg>